<svg id="icons" xmlns="http://www.w3.org/2000/svg" viewBox="0 0 160 160"><defs><style>.cls-1{fill:#f9f7d9;}.cls-2,.cls-5{fill:#262d37;}.cls-2{opacity:0.04;}.cls-3{fill:#59d4d9;}.cls-4{fill:#59d9a4;}.cls-5{opacity:0.16;}.cls-6{fill:none;stroke:#262d37;stroke-linecap:round;stroke-linejoin:round;stroke-width:2px;}</style></defs><title>upward-trend</title><g id="_Group_" data-name="&lt;Group&gt;"><path class="cls-1" d="M80,9a71,71,0,0,1,0,142q-3.57,0-7.05-.35a45.992,45.992,0,0,0,9.51-69.11L94.93,69.07l12.02,12.02,2.83-38.18L71.6,45.73,83.62,57.76,69.86,71.52A46.019,46.019,0,0,0,9.35,87.05Q9,83.57,9,80A71,71,0,0,1,80,9Z"/><path class="cls-2" d="M38,108H15c-.092,0-.179-.019-.268-.027-.7-1.64-1.335-3.317-1.916-5.018A2.983,2.983,0,0,1,15,102H38a3,3,0,0,1,0,6ZM54,72H50a3,3,0,0,0,0,6h4a3,3,0,0,0,0-6ZM73,38a3,3,0,0,0,0-6H59a3,3,0,0,0,0,6ZM31,95a3,3,0,0,0-3-3H10.03c.346,2.029.764,4.033,1.278,6H28A3,3,0,0,0,31,95Zm17,13h74a3,3,0,0,0,0-6H48a3,3,0,0,0,0,6ZM83,32a3,3,0,0,0,0,6h34a3,3,0,0,0,0-6ZM98,45a3,3,0,0,0,3,3h42.375q-1.563-3.09-3.412-6H101A3,3,0,0,0,98,45ZM65,25a3,3,0,0,0,3,3h48a3,3,0,0,0,0-6H68A3,3,0,0,0,65,25Zm54,50a3,3,0,0,0,3,3h28.949c-.056-2.022-.188-4.024-.41-6H122A3,3,0,0,0,119,75Zm20,20a3,3,0,0,0-3-3H102a3,3,0,0,0,0,6h34A3,3,0,0,0,139,95ZM124,35a3,3,0,0,0,3,3h10.236a71.347,71.347,0,0,0-4.93-6H127A3,3,0,0,0,124,35ZM35,95a3,3,0,0,0,3,3H92a3,3,0,0,0,0-6H38A3,3,0,0,0,35,95Zm5-23H17a3,3,0,0,0,0,6H40a3,3,0,0,0,0-6ZM24,115a3,3,0,0,0-3-3H16.625q1.563,3.09,3.412,6H21A3,3,0,0,0,24,115ZM61,85a3,3,0,0,0-3-3H9.051c.056,2.022.188,4.024.41,6H58A3,3,0,0,0,61,85Zm70-30a3,3,0,0,0-3-3H54a3,3,0,0,0,0,6h74A3,3,0,0,0,131,55ZM98,145a2.991,2.991,0,0,0,2.585,2.958A70.557,70.557,0,0,0,114.592,142H101A3,3,0,0,0,98,145Zm28-63a3,3,0,0,0,0,6h24a3,3,0,0,0,.546-.055c.212-1.9.34-3.832.4-5.778A2.969,2.969,0,0,0,150,82Zm19-17a3,3,0,0,0,3,3h1.97c-.346-2.029-.764-4.033-1.278-6H148A3,3,0,0,0,145,65ZM68,82a3,3,0,0,0,0,6h48a3,3,0,0,0,0-6Zm-4-4h48a3,3,0,0,0,0-6H64a3,3,0,0,0,0,6Zm77-13a3,3,0,0,0-3-3H64a3,3,0,0,0,0,6h74A3,3,0,0,0,141,65Zm-6-10a3,3,0,0,0,3,3h9.508q-1-3.062-2.252-6H138A3,3,0,0,0,135,55ZM54,62H40a3,3,0,0,0,0,6H54a3,3,0,0,0,0-6ZM64,18h48a2.985,2.985,0,0,0,1.68-.514A70.563,70.563,0,0,0,100.437,12H64a3,3,0,0,0,0,6Zm62,10h2.321q-2.415-2.246-5.035-4.261A2.985,2.985,0,0,0,126,28ZM57,15a2.973,2.973,0,0,0-.718-1.927A70.6,70.6,0,0,0,45.408,18H54A3,3,0,0,0,57,15Zm75,87a3,3,0,0,0,0,6h13.256c.791-1.841,1.5-3.727,2.132-5.645A2.966,2.966,0,0,0,146,102ZM44,45a3,3,0,0,0,3,3H91a3,3,0,0,0,0-6H47A3,3,0,0,0,44,45Zm99,50a3,3,0,0,0,3,3h2.692c.514-1.967.932-3.971,1.278-6H146A3,3,0,0,0,143,95ZM40,45a3,3,0,0,0-3-3H20.038q-1.847,2.908-3.412,6H37A3,3,0,0,0,40,45ZM52,35a3,3,0,0,0-3-3H27.694a71.347,71.347,0,0,0-4.93,6H49A3,3,0,0,0,52,35Zm62,90a3,3,0,0,0,3,3h15.306a71.347,71.347,0,0,0,4.93-6H117A3,3,0,0,0,114,125Zm22-10a3,3,0,0,0,3,3h.962q1.847-2.908,3.412-6H139A3,3,0,0,0,136,115ZM91,142H47a2.988,2.988,0,0,0-1.175.24A70.567,70.567,0,0,0,59.563,148H91a3,3,0,0,0,0-6Zm41-27a3,3,0,0,0-3-3H85a3,3,0,0,0,0,6h44A3,3,0,0,0,132,115ZM61,25a3,3,0,0,0-3-3H39.074a71.316,71.316,0,0,0-7.4,6H58A3,3,0,0,0,61,25ZM23,55a3,3,0,0,0-3-3H14.744q-1.26,2.933-2.252,6H20A3,3,0,0,0,23,55Zm29,80a3,3,0,0,0-3-3H31.679a71.316,71.316,0,0,0,7.4,6H49A3,3,0,0,0,52,135Zm0-10a3,3,0,0,0-3-3H22.764a71.347,71.347,0,0,0,4.93,6H49A3,3,0,0,0,52,125ZM33,65a3,3,0,0,0-3-3H11.308c-.514,1.967-.932,3.971-1.278,6H30A3,3,0,0,0,33,65Zm91,70a3,3,0,0,0,.073.643q2.195-1.741,4.248-3.643H127A3,3,0,0,0,124,135ZM30,52a3,3,0,0,0,0,6H44a3,3,0,0,0,0-6Zm77,70H99a3,3,0,0,0,0,6h8a3,3,0,0,0,0-6Zm-79-7a3,3,0,0,0,3,3H75a3,3,0,0,0,0-6H31A3,3,0,0,0,28,115Zm89,17H83a3,3,0,0,0,0,6h34a3,3,0,0,0,0-6Zm-58,0a3,3,0,0,0,0,6H73a3,3,0,0,0,0-6Zm33-7a3,3,0,0,0-3-3H59a3,3,0,0,0,0,6H89A3,3,0,0,0,92,125Z"/><path class="cls-3" d="M47.68,93.7l11.31,11.31L31.84,132.16A70.754,70.754,0,0,1,9.35,87.05,46.019,46.019,0,0,1,69.86,71.52Z"/><path class="cls-3" d="M94,112a46.068,46.068,0,0,1-21.05,38.65,70.276,70.276,0,0,1-28.05-8.93l5.15-5.15,31.57-31.56L70.3,93.7,82.46,81.54A45.825,45.825,0,0,1,94,112Z"/><path class="cls-4" d="M109.78,42.91l-2.83,38.18L94.93,69.07,70.3,93.7l11.32,11.31L50.05,136.57l-5.15,5.15a70.665,70.665,0,0,1-13.06-9.56l27.15-27.15L47.68,93.7,69.86,71.52,83.62,57.76,71.6,45.73Z"/><path class="cls-5" d="M80,144A63.968,63.968,0,0,1,16,80c0-.35,0-.7.01-1.05a45.887,45.887,0,0,0-6.66,8.1,70.994,70.994,0,0,0,63.6,63.6,45.884,45.884,0,0,0,8.1-6.66C80.7,144,80.35,144,80,144Z"/><path class="cls-6" d="M147.84,59a71.434,71.434,0,0,1,.59,40"/><path class="cls-6" d="M60.66,11.66A71.135,71.135,0,0,1,143.89,49"/><path class="cls-6" d="M25.76,34.2A70.662,70.662,0,0,0,9,80q0,3.57.35,7.05a70.321,70.321,0,0,0,6.48,23.36"/><path class="cls-6" d="M62.83,148.9a67.715,67.715,0,0,0,10.12,1.75Q76.43,151,80,151a70.622,70.622,0,0,0,36.42-10.05"/><path class="cls-6" d="M144.83,109a71.307,71.307,0,0,1-21.17,26.99"/><path class="cls-6" d="M55.06,146.49a71.387,71.387,0,0,1-10.16-4.77,71.408,71.408,0,0,1-24.61-23.29v-.01"/><path class="cls-6" d="M30.87,28.76A70.772,70.772,0,0,1,51.82,14.82"/><polyline class="cls-6" points="85.27 44.72 71.6 45.73 83.62 57.76 69.86 71.52 59.46 81.92"/><polyline class="cls-6" points="53.6 87.78 47.68 93.7 58.99 105.01 31.84 132.16"/><line class="cls-6" x1="56.45" y1="130.17" x2="44.9" y2="141.72"/><polyline class="cls-6" points="62.05 124.57 81.62 105.01 70.3 93.7 82.46 81.54 94.93 69.07 106.95 81.09 109.78 42.91 95.2 43.99"/><path class="cls-6" d="M33.43,68.36a46.088,46.088,0,0,1,36.43,3.16"/><path class="cls-6" d="M24.52,72.44A46.16,46.16,0,0,0,9.35,87.05"/><path class="cls-6" d="M72.95,150.65a46.248,46.248,0,0,0,15.84-17.36"/><path class="cls-6" d="M90.44,94.24a46.16,46.16,0,0,1,1.74,30.61"/><path class="cls-6" d="M86.31,86.55a46.891,46.891,0,0,0-3.85-5.01"/><path class="cls-6" d="M15,79.96A65,65,0,1,1,80.04,145"/></g></svg>